<svg width="208.333" height="208.333" viewBox="0 0 208.333 208.333" xmlns="http://www.w3.org/2000/svg"><g id="svgGroup" stroke-linecap="round" fill-rule="evenodd" font-size="9pt" stroke="#000" stroke-width="0.25mm" fill="#000" style="stroke:#000;stroke-width:0.25mm;fill:#000"><path d="M 41.667 166.667 L 41.667 208.333 L 83.333 208.333 L 83.333 166.667 L 125 166.667 L 125 125 L 83.333 125 L 83.333 166.667 L 41.667 166.667 Z M 41.667 83.333 L 0 83.333 L 0 166.667 L 41.667 166.667 L 41.667 83.333 Z M 208.333 166.667 L 166.667 166.667 L 166.667 83.333 L 208.333 83.333 L 208.333 166.667 Z M 166.667 83.333 L 125 83.333 L 125 41.667 L 166.667 41.667 L 166.667 83.333 Z M 83.333 41.667 L 41.667 41.667 L 41.667 83.333 L 83.333 83.333 L 83.333 41.667 Z M 166.667 166.667 L 125 166.667 L 125 208.333 L 166.667 208.333 L 166.667 166.667 Z M 125 41.667 L 83.333 41.667 L 83.333 0 L 125 0 L 125 41.667 Z" vector-effect="non-scaling-stroke"/></g></svg>