<svg width="93.75" height="156.25" viewBox="0 0 93.75 156.25" xmlns="http://www.w3.org/2000/svg"><g id="svgGroup" stroke-linecap="round" fill-rule="nonzero" font-size="9pt" stroke="#000" stroke-width="0" fill="#000" style="stroke:#000;stroke-width:0;fill:#000"><path d="M 31.25 93.75 L 31.25 62.5 L 62.5 62.5 L 62.5 93.75 L 62.5 62.5 L 93.75 62.5 L 93.75 93.75 L 62.5 93.75 L 31.25 93.75 Z M 31.25 62.5 L 0 62.5 L 0 93.75 L 31.25 93.75 L 31.25 62.5 Z M 0 62.5 L 0 31.25 L 31.25 31.25 L 31.25 62.5 L 0 62.5 Z M 0 31.25 L 31.25 31.25 L 31.25 0 L 0 0 L 0 31.25 Z M 62.5 125 L 62.5 156.25 L 31.25 156.25 L 31.25 125 L 62.5 125 Z M 31.25 156.25 L 0 156.25 L 0 125 L 31.25 125 L 31.25 156.25 Z M 93.75 93.75 L 93.75 125 L 62.5 125 L 62.5 93.75 L 93.75 93.75 Z M 31.25 31.25 L 31.25 0 L 62.5 0 L 62.5 31.25 L 31.25 31.25 Z M 62.5 0 L 62.5 31.25 L 93.75 31.25 L 93.75 0 L 62.5 0 Z" vector-effect="non-scaling-stroke"/></g></svg>